<svg width="408" height="408" viewBox="0 0 408 408" fill="none" xmlns="http://www.w3.org/2000/svg">
<g filter="url(#filter0_d)">
<rect x="4" width="400" height="400" fill="#060606"/>
</g>
<g filter="url(#filter1_d)">
<path d="M188.617 225.317L182.05 249.817L165.958 245.5L172.517 221.008C162.7 217.388 153.576 212.111 145.542 205.408L127.6 223.358L115.808 211.567L133.758 193.625C123.626 181.49 116.817 166.931 114 151.375L121.5 150C145.577 167.36 174.517 176.68 204.2 176.633C235.067 176.633 263.625 166.758 286.9 150L294.4 151.367C291.586 166.925 284.781 181.486 274.65 193.625L292.592 211.567L280.8 223.358L262.858 205.408C254.824 212.111 245.7 217.388 235.883 221.008L242.442 245.508L226.35 249.817L219.783 225.317C209.47 227.084 198.93 227.084 188.617 225.317V225.317Z" fill="#797979"/>
</g>
<g filter="url(#filter2_d)">
<path d="M341.32 368.112C341.4 366.512 341.96 365.28 343 364.416C344.056 363.536 345.44 363.096 347.152 363.096C348.32 363.096 349.32 363.304 350.152 363.72C350.984 364.12 351.608 364.672 352.024 365.376C352.456 366.064 352.672 366.848 352.672 367.728C352.672 368.736 352.408 369.592 351.88 370.296C351.368 370.984 350.752 371.448 350.032 371.688V371.784C350.96 372.072 351.68 372.584 352.192 373.32C352.72 374.056 352.984 375 352.984 376.152C352.984 377.112 352.76 377.968 352.312 378.72C351.88 379.472 351.232 380.064 350.368 380.496C349.52 380.912 348.496 381.12 347.296 381.12C345.488 381.12 344.016 380.664 342.88 379.752C341.744 378.84 341.144 377.496 341.08 375.72H344.344C344.376 376.504 344.64 377.136 345.136 377.616C345.648 378.08 346.344 378.312 347.224 378.312C348.04 378.312 348.664 378.088 349.096 377.64C349.544 377.176 349.768 376.584 349.768 375.864C349.768 374.904 349.464 374.216 348.856 373.8C348.248 373.384 347.304 373.176 346.024 373.176H345.328V370.416H346.024C348.296 370.416 349.432 369.656 349.432 368.136C349.432 367.448 349.224 366.912 348.808 366.528C348.408 366.144 347.824 365.952 347.056 365.952C346.304 365.952 345.72 366.16 345.304 366.576C344.904 366.976 344.672 367.488 344.608 368.112H341.32ZM369.343 364.248L363.679 375.168V381H360.319V375.168L354.631 364.248H358.423L362.023 371.904L365.599 364.248H369.343ZM370.945 368.112C371.025 366.512 371.585 365.28 372.625 364.416C373.681 363.536 375.065 363.096 376.777 363.096C377.945 363.096 378.945 363.304 379.777 363.72C380.609 364.12 381.233 364.672 381.649 365.376C382.081 366.064 382.297 366.848 382.297 367.728C382.297 368.736 382.033 369.592 381.505 370.296C380.993 370.984 380.377 371.448 379.657 371.688V371.784C380.585 372.072 381.305 372.584 381.817 373.32C382.345 374.056 382.609 375 382.609 376.152C382.609 377.112 382.385 377.968 381.937 378.72C381.505 379.472 380.857 380.064 379.993 380.496C379.145 380.912 378.121 381.12 376.921 381.12C375.113 381.12 373.641 380.664 372.505 379.752C371.369 378.84 370.769 377.496 370.705 375.72H373.969C374.001 376.504 374.265 377.136 374.761 377.616C375.273 378.08 375.969 378.312 376.849 378.312C377.665 378.312 378.289 378.088 378.721 377.64C379.169 377.176 379.393 376.584 379.393 375.864C379.393 374.904 379.089 374.216 378.481 373.8C377.873 373.384 376.929 373.176 375.649 373.176H374.953V370.416H375.649C377.921 370.416 379.057 369.656 379.057 368.136C379.057 367.448 378.849 366.912 378.433 366.528C378.033 366.144 377.449 365.952 376.681 365.952C375.929 365.952 375.345 366.16 374.929 366.576C374.529 366.976 374.297 367.488 374.233 368.112H370.945Z" fill="#797979"/>
</g>
<defs>
<filter id="filter0_d" x="0" y="0" width="408" height="408" filterUnits="userSpaceOnUse" color-interpolation-filters="sRGB">
<feFlood flood-opacity="0" result="BackgroundImageFix"/>
<feColorMatrix in="SourceAlpha" type="matrix" values="0 0 0 0 0 0 0 0 0 0 0 0 0 0 0 0 0 0 127 0"/>
<feOffset dy="4"/>
<feGaussianBlur stdDeviation="2"/>
<feColorMatrix type="matrix" values="0 0 0 0 0 0 0 0 0 0 0 0 0 0 0 0 0 0 0.25 0"/>
<feBlend mode="normal" in2="BackgroundImageFix" result="effect1_dropShadow"/>
<feBlend mode="normal" in="SourceGraphic" in2="effect1_dropShadow" result="shape"/>
</filter>
<filter id="filter1_d" x="110" y="150" width="188.4" height="107.817" filterUnits="userSpaceOnUse" color-interpolation-filters="sRGB">
<feFlood flood-opacity="0" result="BackgroundImageFix"/>
<feColorMatrix in="SourceAlpha" type="matrix" values="0 0 0 0 0 0 0 0 0 0 0 0 0 0 0 0 0 0 127 0"/>
<feOffset dy="4"/>
<feGaussianBlur stdDeviation="2"/>
<feColorMatrix type="matrix" values="0 0 0 0 1 0 0 0 0 0 0 0 0 0 0 0 0 0 1 0"/>
<feBlend mode="normal" in2="BackgroundImageFix" result="effect1_dropShadow"/>
<feBlend mode="normal" in="SourceGraphic" in2="effect1_dropShadow" result="shape"/>
</filter>
<filter id="filter2_d" x="337.08" y="363.096" width="49.529" height="26.024" filterUnits="userSpaceOnUse" color-interpolation-filters="sRGB">
<feFlood flood-opacity="0" result="BackgroundImageFix"/>
<feColorMatrix in="SourceAlpha" type="matrix" values="0 0 0 0 0 0 0 0 0 0 0 0 0 0 0 0 0 0 127 0"/>
<feOffset dy="4"/>
<feGaussianBlur stdDeviation="2"/>
<feColorMatrix type="matrix" values="0 0 0 0 0 0 0 0 0 0 0 0 0 0 0 0 0 0 0.25 0"/>
<feBlend mode="normal" in2="BackgroundImageFix" result="effect1_dropShadow"/>
<feBlend mode="normal" in="SourceGraphic" in2="effect1_dropShadow" result="shape"/>
</filter>
</defs>
</svg>
